# xmcd
#
# Track frame offsets:
#	150
#	13707
#	30294
#	47900
#	61202
#	79571
#	93957
#	108241
#	127364
#	142889
#
# Disc length: 2089 seconds
#
# Revision: 2
# Processed by: cddbd v1.5.1PL0 Copyright (c) Steve Scherf et al.
# Submitted via: audiograbber 1.83.01
#
DISCID=7808270a
DTITLE=Backstage - BS5917
DYEAR=1900
DGENRE=Karaoke
TTITLE0=Randy Travis - An Old Pair Of Shoes
TTITLE1=Randy Travis - Forever and Ever Amen
TTITLE2=Randy Travis - Hard Rock Bottom Of Your Heart
TTITLE3=Randy Travis - How Do I Wrap Up My Heart
TTITLE4=Randy Travis - I Told You So
TTITLE5=Randy Travis - I Won't Need You Anymore
TTITLE6=Randy Travis - If I Didn't Have You
TTITLE7=Randy Travis - No Place Like Home
TTITLE8=Randy Travis - Before You Kill Us All
TTITLE9=Randy Travis - 1982
EXTD=
EXTT0=
EXTT1=
EXTT2=
EXTT3=
EXTT4=
EXTT5=
EXTT6=
EXTT7=
EXTT8=
EXTT9=
PLAYORDER=
